<?xml version="1.0" standalone="no"?>
<!DOCTYPE svg PUBLIC "-//W3C//DTD SVG 20010904//EN"
 "http://www.w3.org/TR/2001/REC-SVG-20010904/DTD/svg10.dtd">
<svg version="1.0" xmlns="http://www.w3.org/2000/svg"
 width="1182.000000pt" height="1182.000000pt" viewBox="0 0 1182.000000 1182.000000"
 preserveAspectRatio="xMidYMid meet">
<metadata>
Created by potrace 1.11, written by Peter Selinger 2001-2013
</metadata>
<g transform="translate(0.000000,1182.000000) scale(0.100000,-0.100000)"
fill="#000000" stroke="none">
<path d="M4220 8953 c-23 -54 -58 -132 -77 -173 -20 -41 -63 -138 -98 -215
-34 -77 -148 -329 -252 -560 -105 -231 -200 -442 -213 -470 -12 -27 -36 -79
-52 -115 -17 -36 -45 -99 -63 -140 -18 -41 -46 -104 -63 -140 -16 -36 -39 -85
-50 -110 -11 -25 -74 -164 -140 -310 -66 -146 -132 -292 -147 -325 -14 -33
-36 -80 -47 -105 -11 -25 -49 -108 -83 -185 -35 -77 -77 -171 -95 -210 -18
-38 -61 -133 -95 -210 -34 -77 -97 -216 -139 -310 -101 -224 -100 -221 -132
-290 -15 -33 -48 -107 -74 -165 l-48 -105 -72 -12 c-475 -79 -768 -546 -629
-1000 81 -263 283 -458 554 -534 102 -29 277 -31 374 -6 360 96 595 381 606
737 5 169 -32 309 -121 453 -35 56 -35 59 -21 90 9 18 99 217 200 442 102 226
197 437 212 470 15 33 37 83 50 110 80 178 357 790 401 888 30 65 54 120 54
122 0 1 17 41 39 87 21 45 69 151 106 233 37 83 82 182 100 220 18 39 35 80
39 93 4 12 11 22 15 22 4 0 40 -75 81 -167 40 -93 83 -190 96 -218 27 -61 19
-43 244 -555 100 -228 290 -659 421 -958 132 -298 244 -553 248 -565 5 -12 22
-51 39 -87 26 -57 85 -190 252 -572 29 -66 47 -96 59 -96 9 0 189 -1 400 -1
211 -1 385 0 387 2 3 3 -122 297 -176 412 -10 22 -41 92 -68 155 -28 63 -105
238 -171 388 -67 151 -121 275 -121 278 0 2 -18 42 -40 89 -22 47 -40 88 -40
90 0 3 -16 39 -35 81 -19 41 -35 77 -35 79 0 3 -14 35 -31 72 -17 38 -54 120
-81 183 -28 63 -62 140 -75 170 -14 30 -47 105 -73 165 -26 61 -82 189 -125
285 -42 96 -109 247 -147 335 -39 88 -81 183 -93 210 -12 28 -53 120 -90 205
-37 85 -76 175 -88 200 -11 25 -28 63 -37 85 -26 61 -60 137 -75 170 -14 30
-127 287 -293 665 -49 113 -102 232 -117 265 -14 33 -34 78 -44 100 -10 22
-49 111 -87 197 -38 87 -72 158 -75 158 -3 0 -25 -44 -49 -97z"/>
<path d="M9329 8799 c-95 -14 -119 -19 -166 -35 -233 -77 -417 -259 -497 -490
-30 -87 -37 -128 -41 -236 -5 -183 32 -301 154 -493 11 -17 8 -29 -17 -85 -34
-75 -71 -155 -100 -220 -62 -140 -261 -580 -282 -625 -10 -22 -37 -80 -58
-130 -22 -49 -51 -115 -65 -145 -14 -30 -80 -176 -147 -325 -67 -148 -135
-298 -151 -333 -16 -35 -29 -65 -29 -67 0 -2 -22 -52 -50 -110 -27 -58 -50
-108 -50 -110 0 -2 -20 -48 -45 -101 -25 -53 -45 -97 -45 -99 0 -2 -15 -36
-34 -77 -19 -40 -75 -165 -126 -278 -51 -113 -98 -216 -104 -228 -12 -22 -17
-15 -71 110 -32 73 -68 156 -80 183 -13 28 -37 84 -55 125 -18 41 -42 98 -55
125 -12 28 -62 140 -110 250 -48 110 -102 233 -121 273 -19 41 -34 76 -34 78
0 2 -42 99 -94 216 -52 117 -144 328 -206 468 -61 140 -142 325 -180 410 -37
85 -118 270 -180 410 -61 140 -118 268 -126 284 -8 16 -14 35 -14 43 0 7 -4
13 -10 13 -5 0 -10 6 -10 14 0 19 -79 189 -91 197 -13 8 -799 12 -799 4 0 -4
14 -39 31 -78 29 -68 41 -95 88 -199 11 -24 42 -95 69 -158 27 -63 61 -140 75
-170 13 -30 55 -125 92 -210 37 -85 77 -177 90 -205 24 -53 28 -63 95 -215 23
-52 48 -108 55 -125 17 -36 274 -622 422 -960 58 -132 114 -259 124 -282 11
-24 53 -121 95 -215 41 -95 91 -209 111 -253 20 -44 42 -93 49 -110 12 -30
123 -280 299 -680 54 -121 119 -269 145 -330 26 -60 57 -130 68 -155 11 -25
78 -175 147 -335 70 -159 135 -307 145 -329 l19 -38 14 33 c17 39 64 143 113
247 19 41 34 76 34 78 0 2 15 36 34 76 18 40 106 235 195 433 175 389 189 420
231 510 16 33 57 125 93 205 35 80 149 332 252 560 103 228 239 530 302 670
63 140 133 293 154 338 21 46 39 85 39 87 0 2 36 83 81 182 44 98 90 198 101
223 11 25 31 70 45 100 14 30 56 125 95 210 38 85 81 180 95 210 14 30 33 73
43 95 94 207 98 215 123 215 42 0 180 39 247 71 136 64 271 190 345 324 35 63
71 159 79 209 4 21 9 43 12 48 6 9 6 205 0 243 -20 134 -89 284 -181 394 -50
60 -135 130 -206 170 -56 31 -179 83 -179 76 0 -3 -11 0 -25 5 -48 18 -197 29
-266 19z"/>
</g>
</svg>
